<?xml version="1.0" encoding="UTF-8" standalone="no"?>
<svg
   xmlns:dc="http://purl.org/dc/elements/1.1/"
   xmlns:cc="http://creativecommons.org/ns#"
   xmlns:rdf="http://www.w3.org/1999/02/22-rdf-syntax-ns#"
   xmlns:svg="http://www.w3.org/2000/svg"
   xmlns="http://www.w3.org/2000/svg"
   xmlns:sodipodi="http://sodipodi.sourceforge.net/DTD/sodipodi-0.dtd"
   xmlns:inkscape="http://www.inkscape.org/namespaces/inkscape"
   version="1.1"
   id="svg2"
   xml:space="preserve"
   width="270.67679"
   height="102.16093"
   viewBox="0 0 270.67678 102.16094"
   sodipodi:docname="ECQ Brand.svg"
   inkscape:version="1.0.2-2 (e86c870879, 2021-01-15)"><metadata
     id="metadata8"><rdf:RDF><cc:Work
         rdf:about=""><dc:format>image/svg+xml</dc:format><dc:type
           rdf:resource="http://purl.org/dc/dcmitype/StillImage" /><dc:title></dc:title></cc:Work></rdf:RDF></metadata><defs
     id="defs6"><clipPath
       clipPathUnits="userSpaceOnUse"
       id="clipPath18"><path
         d="M 0,540.385 H 841.89 V 0 H 0 Z"
         id="path16" /></clipPath><clipPath
       clipPathUnits="userSpaceOnUse"
       id="clipPath54"><path
         d="M 0,540.385 H 841.89 V 0 H 0 Z"
         id="path52" /></clipPath></defs><sodipodi:namedview
     pagecolor="#ffffff"
     bordercolor="#666666"
     borderopacity="1"
     objecttolerance="10"
     gridtolerance="10"
     guidetolerance="10"
     inkscape:pageopacity="0"
     inkscape:pageshadow="2"
     inkscape:window-width="1920"
     inkscape:window-height="1017"
     id="namedview4"
     showgrid="false"
     fit-margin-top="0"
     fit-margin-left="0"
     fit-margin-right="0"
     fit-margin-bottom="0"
     inkscape:zoom="2.8284271"
     inkscape:cx="127.21879"
     inkscape:cy="25.420175"
     inkscape:window-x="-8"
     inkscape:window-y="-8"
     inkscape:window-maximized="1"
     inkscape:current-layer="g10" /><g
     id="g10"
     inkscape:groupmode="layer"
     inkscape:label="ECQ Brand"
     transform="matrix(1.3333333,0,0,-1.3333333,-422.37492,430.77466)"
     style="display:inline"><g
       id="g12"
       style="display:none"><g
         id="g14"
         clip-path="url(#clipPath18)"><g
           id="g20"
           transform="translate(772.4658,483.5333)"><path
             d="m 0,0 h -2.827 v -3.575 h 2.436 V -4.988 H -2.827 V -9.212 H 0 v -1.527 H -4.484 V 1.542 H 0 Z m -6.116,-4.346 c -0.492,-0.548 -1.037,-0.869 -1.634,-0.967 -0.075,-0.011 -0.15,-0.019 -0.227,-0.024 -0.076,-0.006 -0.151,-0.009 -0.227,-0.009 -0.131,0 -0.26,0.009 -0.391,0.025 -0.129,0.016 -0.255,0.041 -0.373,0.073 v -5.491 h -1.657 V 1.542 h 2.048 c 0.897,-0.01 1.656,-0.242 2.273,-0.697 0.617,-0.455 0.926,-1.295 0.926,-2.519 0,-1.235 -0.246,-2.125 -0.738,-2.672 m -7.839,-1.276 v -5.117 h -1.657 v 5.117 L -18.05,1.542 V 0.13 h -1.787 v -10.869 h -1.674 V 0.13 h -1.916 v 1.412 h 5.377 1.786 l 1.544,-5.75 0.244,1.917 1.024,3.833 h 1.803 z m -10.707,-3.654 c -0.4,-1.149 -1.181,-1.723 -2.339,-1.723 -1.018,0 -1.829,0.441 -2.43,1.324 -0.6,0.883 -0.901,2.44 -0.901,4.671 0,1.928 0.209,3.498 0.626,4.712 0.417,1.212 1.232,1.819 2.445,1.819 v 0.015 c 1.094,-0.01 1.901,-0.538 2.421,-1.583 0.52,-1.045 0.779,-2.656 0.779,-4.833 0,-1.788 -0.2,-3.255 -0.601,-4.402 m -6.823,2.761 c 0,-1.548 -0.276,-2.683 -0.828,-3.404 -0.552,-0.72 -1.343,-1.08 -2.372,-1.08 -1.018,0 -1.784,0.52 -2.298,1.56 -0.516,1.039 -0.772,2.518 -0.772,4.435 v 1.82 c 0,1.798 0.324,3.073 0.974,3.825 0.65,0.753 1.364,1.13 2.145,1.13 0.682,0 1.321,-0.239 1.917,-0.715 0.596,-0.477 0.963,-1.089 1.105,-1.837 l -1.529,-0.616 c -0.086,0.444 -0.256,0.806 -0.51,1.088 -0.255,0.281 -0.529,0.433 -0.821,0.455 h -0.032 -0.033 c -0.357,0 -0.682,-0.228 -0.975,-0.683 -0.292,-0.454 -0.437,-1.218 -0.437,-2.29 v -3.054 c 0,-1.224 0.145,-2.134 0.437,-2.729 0.293,-0.597 0.612,-0.921 0.959,-0.975 h 0.057 0.041 c 0.335,0 0.639,0.229 0.908,0.69 0.271,0.461 0.406,1.118 0.406,1.974 v 1.299 h -1.412 v 1.414 h 3.07 z m -8.269,-2.761 c -0.4,-1.149 -1.181,-1.723 -2.339,-1.723 -1.018,0 -1.828,0.441 -2.428,1.324 -0.602,0.883 -0.903,2.44 -0.903,4.671 0,1.928 0.208,3.498 0.626,4.712 0.416,1.212 1.232,1.819 2.445,1.819 v 0.015 c 1.094,-0.01 1.901,-0.538 2.42,-1.583 0.521,-1.045 0.781,-2.656 0.781,-4.833 0,-1.788 -0.201,-3.255 -0.602,-4.402 m -6.303,-1.463 h -4.484 V 1.542 h 1.656 V -9.326 h 2.828 z m -8.287,-2.793 H 3.802 V 4.304 h -58.146 z"
             style="fill:#575965;fill-opacity:1;fill-rule:nonzero;stroke:none"
             id="path22" /></g><g
           id="g24"
           transform="translate(763.7422,483.6632)"><path
             d="M 0,0 H -0.065 -0.114 C -0.137,-0.011 -0.157,-0.016 -0.18,-0.016 h -0.064 v -4.078 c 0.704,-0.011 1.163,0.136 1.381,0.438 0.217,0.304 0.356,0.834 0.423,1.593 0,0.541 -0.109,1.021 -0.327,1.437 C 1.018,-0.209 0.606,0 0,0"
             style="fill:#575965;fill-opacity:1;fill-rule:nonzero;stroke:none"
             id="path26" /></g><g
           id="g28"
           transform="translate(730.1133,483.5162)"><path
             d="m 0,0 v 0.017 c -0.575,-0.011 -0.95,-0.463 -1.129,-1.356 -0.179,-0.894 -0.267,-1.981 -0.267,-3.258 0,-1.852 0.141,-3.146 0.429,-3.883 0.286,-0.736 0.653,-1.104 1.097,-1.104 0.509,0 0.872,0.414 1.088,1.242 0.218,0.829 0.325,2.077 0.325,3.745 0,1.668 -0.13,2.851 -0.39,3.55 C 0.894,-0.349 0.509,0 0,0"
             style="fill:#575965;fill-opacity:1;fill-rule:nonzero;stroke:none"
             id="path30" /></g><g
           id="g32"
           transform="translate(745.2051,483.5162)"><path
             d="m 0,0 v 0.017 c -0.575,-0.011 -0.951,-0.463 -1.13,-1.356 -0.179,-0.894 -0.267,-1.981 -0.267,-3.258 0,-1.852 0.142,-3.146 0.43,-3.883 0.286,-0.736 0.653,-1.104 1.097,-1.104 0.509,0 0.871,0.414 1.088,1.242 0.217,0.829 0.325,2.077 0.325,3.745 0,1.668 -0.13,2.851 -0.39,3.55 C 0.894,-0.349 0.508,0 0,0"
             style="fill:#575965;fill-opacity:1;fill-rule:nonzero;stroke:none"
             id="path34" /></g><g
           id="g36"
           transform="translate(195.7515,471.2418)"><path
             d="M 0,0 H 510.697"
             style="fill:#6d6f71;fill-opacity:1;fill-rule:nonzero;stroke:#575965;stroke-width:0.25;stroke-linecap:butt;stroke-linejoin:miter;stroke-miterlimit:10;stroke-dasharray:none;stroke-opacity:1"
             id="path38" /></g></g></g><text
       transform="matrix(1,0,0,-1,54.8911,471.0908)"
       style="font-variant:normal;font-weight:bold;font-stretch:normal;font-size:14px;font-family:'Montserrat Alternates';-inkscape-font-specification:MontserratAlternates-Bold;writing-mode:lr-tb;display:none;fill:#575965;fill-opacity:1;fill-rule:nonzero;stroke:none"
       id="text46"><tspan
         x="0 8.3999996 17.57 27.370001"
         y="0"
         sodipodi:role="line"
         id="tspan40">Logo</tspan><tspan
         x="36.540001"
         y="0"
         id="tspan42"> </tspan><tspan
         x="40.501999 50.498001 59.667999 69.342003 76.776001 82.543999 88.578003 98.195999 106.414 112.182 116.396 125.566 135.24001"
         y="0"
         sodipodi:role="line"
         id="tspan44">Construction </tspan></text><g
       id="g48"
       style="display:inline"><g
         id="g50"
         clip-path="url(#clipPath54)"
         style="display:inline"><g
           id="g56"
           transform="translate(502.8418,264.4889)"
           style="display:inline"><path
             d="m 0,0 c 3.625,5.797 5.719,12.637 5.719,19.978 -0.002,10.509 -4.297,20.008 -11.24,26.867 -6.946,6.859 -16.562,11.101 -27.207,11.103 -8.686,-0.002 -16.688,-2.83 -23.113,-7.599 0.05,-0.049 0.102,-0.094 0.151,-0.143 3.643,-3.627 6.554,-7.838 8.67,-12.515 3.934,3.108 8.902,4.971 14.293,4.971 6.315,0 12.052,-2.548 16.22,-6.667 4.169,-4.118 6.75,-9.783 6.75,-16.021 0,-6.236 -2.581,-11.902 -6.751,-16.021 -4.168,-4.118 -9.903,-6.665 -16.22,-6.665 -5.487,0 -10.538,1.926 -14.502,5.135 -2.098,-4.493 -4.933,-8.551 -8.458,-12.063 -0.167,-0.165 -0.34,-0.321 -0.508,-0.484 6.484,-4.933 14.619,-7.874 23.472,-7.874 7.874,0.001 15.191,2.325 21.274,6.313 l 5.797,-6.343 22.6,0.057 z"
             style="fill:#575965;fill-opacity:1;fill-rule:nonzero;stroke:none"
             id="path58" /></g><g
           id="g60"
           transform="translate(400.916,300.921)"
           style="display:inline"><path
             d="m 0,0 c 4.168,4.152 9.905,6.721 16.215,6.721 v -0.03 h 0.002 0.002 v 0.03 c 6.309,0 12.045,-2.567 16.213,-6.72 0.242,-0.241 0.478,-0.487 0.71,-0.738 h 1.044 17.24 c -1.934,4.387 -4.663,8.342 -8.013,11.676 -0.14,0.139 -0.286,0.27 -0.428,0.406 -6.907,6.67 -16.341,10.784 -26.766,10.785 v 0.03 H 16.217 16.215 V 22.13 C 5.576,22.129 -4.039,17.852 -10.98,10.938 -11.113,10.806 -11.238,10.667 -11.368,10.533 -7.632,6.239 -4.871,1.322 -3.181,-3.961 -2.267,-2.528 -1.202,-1.197 0,0"
             style="fill:#9a9a9b;fill-opacity:1;fill-rule:nonzero;stroke:none"
             id="path62" /></g><g
           id="g64"
           transform="translate(433.3477,268.6217)"
           style="display:inline"><path
             d="m 0,0 c -4.167,-4.152 -9.903,-6.721 -16.214,-6.721 v 0.03 h -0.001 -0.002 v -0.03 c -6.31,0 -12.045,2.569 -16.213,6.72 -1.143,1.138 -2.161,2.397 -3.045,3.75 h -3.087 -8.215 -5.81 c 1.915,-5.597 5.079,-10.608 9.175,-14.688 6.943,-6.914 16.557,-11.191 27.195,-11.193 v -0.029 h 0.002 0.001 v 0.029 c 10.263,0 19.565,3.989 26.442,10.478 0.252,0.238 0.509,0.471 0.754,0.716 3.301,3.288 5.997,7.178 7.925,11.492 0.029,0.062 0.06,0.122 0.087,0.184 H 0.71 C 0.479,0.486 0.243,0.24 0,0"
             style="fill:#9a9a9b;fill-opacity:1;fill-rule:nonzero;stroke:none"
             id="path66" /></g><g
           id="g68"
           transform="translate(377.4482,292.5573)"
           style="display:inline"><path
             d="m 0,0 h -2.038 -9.817 -9.267 -0.077 -22.004 c 1.198,2.994 3.039,5.689 5.364,7.928 4.276,4.118 10.16,6.666 16.634,6.666 v -0.03 h 0.002 0.002 v 0.03 c 6.476,0 12.36,-2.548 16.636,-6.668 1.298,-1.25 2.44,-2.647 3.409,-4.155 C -0.631,2.954 -0.155,2.106 0.261,1.227 0.451,0.823 0.632,0.415 0.798,0 Z m 9.431,15.852 c -0.437,0.518 -0.885,1.028 -1.349,1.523 -0.449,0.478 -0.908,0.947 -1.38,1.402 -0.012,0.011 -0.024,0.021 -0.035,0.032 -7.119,6.838 -16.97,11.069 -27.868,11.07 v 0.03 h -0.002 -0.002 v -0.03 c -10.915,-0.001 -20.778,-4.244 -27.9,-11.102 -7.124,-6.86 -11.53,-16.358 -11.531,-26.87 h -0.031 v -10e-4 -0.003 h 0.031 c 0.001,-10.509 4.407,-20.007 11.529,-26.868 7.124,-6.857 16.987,-11.101 27.903,-11.101 v -0.031 h 0.001 v 15.331 0.016 h -0.001 v -0.016 -0.014 c -6.475,0 -12.359,2.547 -16.635,6.666 -2.325,2.238 -4.166,4.932 -5.364,7.927 h 22.004 0.062 9.282 9.942 2.044 0.666 1.387 m 0,0 h 6.938 8.216 c 0.136,0.606 0.253,1.217 0.358,1.833 0.349,2.037 0.535,4.126 0.535,6.259 h 0.031 v 0.001 0.003 h -0.031 c 0,2.261 -0.216,4.471 -0.607,6.622 -1.181,6.497 -4.062,12.42 -8.193,17.321"
             style="fill:#ed193a;fill-opacity:1;fill-rule:nonzero;stroke:none"
             id="path70" /></g></g></g><text
       transform="matrix(1,0,0,-1,316.5684,208.9434)"
       style="font-variant:normal;font-weight:500;font-stretch:normal;font-size:16.6726px;font-family:'Avenir Next Medium';-inkscape-font-specification:AvenirNext-Medium;writing-mode:lr-tb;display:none;fill:#575965;fill-opacity:1;fill-rule:nonzero;stroke:none"
       id="text74"><tspan
         x="0 15.822297 26.959595 38.096889 49.784382 64.322891 75.47686 81.662392 94.033463 105.72095 111.55637 122.71033 134.39783 147.86929 161.40744 173.31168 179.49721 190.45111"
         y="0"
         sodipodi:role="line"
         id="tspan72">OFFENSIVE SECURITY</tspan></text></g></svg>
